<svg data-v-5008d405="" version="1.0" xmlns="http://www.w3.org/2000/svg" viewBox="42 75 280 100">
  <g data-v-5008d405="" fill="#fff" class="icon-text-wrapper icon-svg-group iconsvg"
    transform="translate(42.849761962890625,95.21902465820312)">
    <g class="iconsvg-imagesvg" transform="translate(0,0)">
      <rect fill-opacity="0" stroke-width="2" x="0" y="0" width="60" height="59.56193809207981"
        class="image-rect"></rect> <svg x="0" y="0" width="60" height="59.56193809207981" filtersec="colorsb5868227837"
        class="image-svg-svg primary"><svg xmlns="http://www.w3.org/2000/svg" viewBox="0 0 497.19 493.56">
          <defs>
            <linearGradient id="8a4de88b-7cee-4e28-9b1f-4ef3f0ceea21" x1="248.6" y1="493.56" x2="248.6"
              gradientUnits="userSpaceOnUse">
              <stop offset="0" stop-color="#fff"></stop>
              <stop offset=".23" stop-color="#fff"></stop>
              <stop offset=".47" stop-color="#61dafb"></stop>
              <stop offset="1" stop-color="#61dafb"></stop>
            </linearGradient>
          </defs>
          <g>
            <path
              d="M79.62 263.06a561.51 561.51 0 0 1-4-73.49A394.34 394.34 0 0 1 84 111.26c5.85-26.07 14.12-52.48 32.22-77.32a95.84 95.84 0 0 1 16.58-17.66A72.69 72.69 0 0 1 156.6 3a61.65 61.65 0 0 1 19-3 59.19 59.19 0 0 1 10.28.89A69 69 0 0 1 211.15 11a91.93 91.93 0 0 1 18.1 15.35c2.71 2.75 4.82 5.61 7.23 8.41 2.07 2.9 4.33 5.71 6.2 8.66a219.35 219.35 0 0 1 18.94 35.71 342.65 342.65 0 0 1 14.27 40.73q-22.73-8-46.88-15c-1.33-3-2.75-5.85-4.18-8.76a176.36 176.36 0 0 0-17.12-27.79c-1.52-2.12-3.25-3.94-4.82-5.9-1.72-1.72-3.3-3.69-5.07-5.16a48 48 0 0 0-10.23-7.58 22.63 22.63 0 0 0-8.71-2.85 13 13 0 0 0-3.69.25 15.27 15.27 0 0 0-3 1C167.72 50 161.87 55.19 157 62.91A111.09 111.09 0 0 0 145.53 88a187.16 187.16 0 0 0-6.53 26.56c-.44 2.26-.79 4.53-1.13 6.79a326 326 0 0 0-3 60.65q.07 3.32.3 6.64c.34 6.69.84 13.43 1.48 20.17 1.48 16.08 3.84 32.22 6.94 48.2 7.77 41.17 20 81.65 35.22 121.1l-.25.15a316.66 316.66 0 0 1-55.34 29.07c-3.49 1.38-6.94 2.66-10.33 3.79q-7.45-22.95-13.67-46.34c-2.66-9.94-5.12-20-7.33-30q-4.89-21.92-8.48-44.22c-1.28-7.87-2.36-15.79-3.34-23.76-.15-1.23-.3-2.51-.45-3.74zm416.48 65.72a98.88 98.88 0 0 0-7-23.17c-12.44-28.09-31.23-48.45-50.86-66.6a395.9 395.9 0 0 0-63.65-46.38q-9.89-5.9-20.07-11.36c-2.41-1.33-4.87-2.61-7.33-3.89q-4.65-2.43-9.3-4.72-3-1.55-6-3c-2.16-1.08-4.33-2.07-6.49-3.1-2.36-1.08-4.67-2.16-7-3.2-3.1-1.38-6.2-2.75-9.3-4.08-1.18-.54-2.36-1-3.54-1.52-4.08-1.72-8.12-3.39-12.2-5-3.34-1.33-6.69-2.66-10-3.94-2.56-1-5.12-2-7.72-2.9s-5.16-1.92-7.72-2.8c-2.36-.89-4.72-1.72-7.13-2.51-6.64-2.31-13.28-4.48-20-6.59-3.34-1-6.69-2.07-10-3l-6.54-1.92c-4.33-1.28-8.66-2.46-13-3.64-1.82-.49-3.59-1-5.41-1.43-3.1-.84-6.2-1.62-9.3-2.41q-10.26-2.58-20.51-4.87c-2-.44-3.93-.93-5.9-1.33s-3.94-.89-5.9-1.28c-.74 3.49-1.38 7.08-1.92 10.82a317.25 317.25 0 0 0-2.46 62.47v.34c.2 0 .44 0 .64.1s.34 0 .49.1c4.87.74 9.69 1.52 14.51 2.41 4.38.74 8.71 1.52 13 2.41 1.67.3 3.35.59 5 .93.39.1.84.15 1.23.25 2.56.54 5.07 1 7.58 1.57.15 0 .3 0 .44.1 2.9.59 5.8 1.23 8.66 1.92s5.51 1.23 8.26 1.87l1.92.44c2.7.69 5.36 1.33 8 2 2.41.59 4.77 1.23 7.18 1.87 1.43.39 2.9.74 4.33 1.13 2.71.74 5.41 1.52 8.12 2.31s5.56 1.62 8.36 2.46c2.36.69 4.67 1.43 7 2.16 1 .34 2.07.64 3.1 1 4.87 1.57 9.79 3.2 14.61 4.92 2.26.79 4.53 1.57 6.74 2.41s4.48 1.62 6.74 2.51c2 .74 4 1.52 6 2.31a8.87 8.87 0 0 1 1 .39c1.57.59 3.1 1.23 4.62 1.87s2.9 1.13 4.33 1.77 2.75 1.13 4.13 1.67c0 0 .15 0 .2.1 3.84 1.67 7.62 3.34 11.41 5.07.15 0 .3.15.44.2 3 1.38 6 2.75 9 4.23s5.9 2.9 8.8 4.38c2 1 3.89 2 5.8 3 1.87.93 3.74 1.92 5.56 3 .59.3 1.13.59 1.67.89l.25.15c2 1.13 4 2.26 6 3.44s3.74 2.16 5.56 3.3q3.1 1.84 6.2 3.84c2.07 1.28 4.08 2.61 6.1 3.94s3.94 2.66 5.9 4q7.16 5 13.87 10.33c1.62 1.28 3.2 2.61 4.82 3.94a3.4 3.4 0 0 1 .49.39l1 .89c1.43 1.23 2.85 2.46 4.23 3.69 1.62 1.48 3.25 3 4.82 4.48.84.84 1.72 1.62 2.51 2.46s1.67 1.62 2.46 2.46l.69.69c1.33 1.43 2.71 2.85 4 4.33 1.67 1.82 3.25 3.69 4.72 5.56.1.1.2.25.29.34.64.84 1.28 1.57 1.87 2.41 1.28 1.67 2.51 3.39 3.64 5.07.69 1 1.33 2 2 3 1.28 2 2.46 4 3.49 6.05 4.28 8 5.9 15.74 5.31 20.56a13.6 13.6 0 0 1-2.31 6.39 22.47 22.47 0 0 1-6.84 6.15 45.7 45.7 0 0 1-11.66 5c-2.16.79-4.67 1.18-7 1.82-2.51.39-4.92 1-7.53 1.28a162.77 162.77 0 0 1-20.46 1.23c-4 0-8.07-.15-12.15-.34-3.2-.2-6.44-.44-9.69-.74q-18.08 17.49-36.4 33.05 3.69 1 7.38 1.77c1.72.44 3.49.84 5.21 1.18 2.8.64 5.66 1.23 8.46 1.77 3.49.64 7 1.28 10.53 1.82.79.15 1.57.25 2.36.34 2.8.44 5.61.84 8.46 1.18a242.77 242.77 0 0 0 28.38 1.82c3.94 0 8-.1 12-.39 3.49-.15 7.08-.69 10.62-1 3.59-.64 7.18-1.08 10.87-2a92.55 92.55 0 0 0 22.38-8.07 67.55 67.55 0 0 0 21.3-16.77A60.85 60.85 0 0 0 495.71 356a72.85 72.85 0 0 0 .39-27.22zM362.41 342q17.19-17 33.35-35c-2.7-2.36-5.51-4.72-8.46-7a314.81 314.81 0 0 0-52.83-33.4l-.3-.15c-26.51 32.91-55.43 63.8-87.21 91.1-12.35 10.62-25.09 20.71-38.27 30.05-5.51 3.94-11.12 7.77-16.77 11.41-1.87 1.18-3.69 2.36-5.56 3.54a328.4 328.4 0 0 1-54.06 27.65c-2.12.84-4.23 1.67-6.39 2.41-.54-.44-1-.84-1.57-1.33a20.18 20.18 0 0 0 1.52 1.38 3.86 3.86 0 0 0-.69.25c-2.12.74-4.18 1.48-6.3 2.16-.64.2-1.28.39-1.87.59-1.77.59-3.59 1.13-5.36 1.62-.64.2-1.23.34-1.87.49-1.77.54-3.54 1-5.31 1.38s-3.25.79-4.87 1.13a119.4 119.4 0 0 1-23.66 2.66c-1.28 0-2.56 0-3.84-.1-9.05-.3-16.53-2.75-20.41-5.66a14 14 0 0 1-4.37-5.18 22.06 22.06 0 0 1-1.92-9 45.94 45.94 0 0 1 1.48-12.59c.39-2.26 1.28-4.62 1.92-7 .93-2.36 1.62-4.77 2.71-7.13A174.21 174.21 0 0 1 67 367.54c1.77-2.71 3.59-5.36 5.51-8-4.1-16.25-7.6-32.24-10.51-48.08a348.41 348.41 0 0 0-28.14 32.71 221.21 221.21 0 0 0-21.5 34.28c-1.57 3-2.9 6.44-4.38 9.69-1.23 3.49-2.66 6.74-3.69 10.43A93.4 93.4 0 0 0 .08 422 69 69 0 0 0 4 448.84a61.58 61.58 0 0 0 16.48 24.35 72.85 72.85 0 0 0 23.41 13.92 97.2 97.2 0 0 0 23.56 5.56 163.44 163.44 0 0 0 16.82.89c3 0 5.9-.1 8.85-.25 5.8-.3 11.51-.89 17.12-1.72 2.8-.44 5.56-.89 8.31-1.43s5.46-1.13 8.16-1.72 5.41-1.28 8.07-2 5.31-1.43 7.92-2.16l7.82-2.36a395.06 395.06 0 0 0 72-31.92 549.51 549.51 0 0 0 61.63-40.14c1-.74 2-1.48 3-2.26q9.59-7.23 18.89-14.81c11.71-9.49 23-19.28 34-29.46q11.52-10.43 22.37-21.33z"
              fill="url(#8a4de88b-7cee-4e28-9b1f-4ef3f0ceea21)"></path>
          </g>
        </svg></svg>
    </g>
    <g transform="translate(71.00259017944336,21.355976104736328)">
      <g data-gra="path-name" fill-rule="" class="tp-name iconsvg-namesvg">
        <g>
          <path
            d="M2.53-14.65L2.53-3.04L0.82-3.04L0.82 0L7.87 0L7.87-3.04L6.31-3.04L6.31-6.49L9.37-6.49L12.86 0L17.27 0L17.27-3.04L15.21-3.04L12.99-7.05C15.10-7.87 16.42-9.43 16.42-12.14C16.42-16.16 13.52-17.69 9.43-17.69L0.82-17.69L0.82-14.65ZM6.31-14.65L9.43-14.65C11.48-14.65 12.88-13.94 12.88-11.91C12.88-9.90 11.46-9.14 9.43-9.14L6.31-9.14ZM18.69 0L33.29 0L33.29-5.78L30.55-5.78L30.31-3.12L24.18-3.12L24.18-7.55L29.25-7.55L29.25-10.03L24.18-10.03L24.18-14.57L30.31-14.57L30.55-11.91L33.29-11.91L33.29-17.69L18.69-17.69L18.69-14.57L20.41-14.57L20.41-3.12L18.69-3.12ZM41.50 0L41.50-3.04L39.89-3.04L40.66-5.28L46.97-5.28L47.73-3.04L46.15-3.04L46.15 0L53.20 0L53.20-3.04L51.46-3.04L46.26-17.69L41.40-17.69L36.17-3.04L34.45-3.04L34.45 0ZM43.83-14.52L46.10-7.84L41.53-7.84ZM53.38-8.90C53.38-2.88 57.21 0.21 62.57 0.21C65.13 0.21 67.51-0.53 69.12-1.66L68.28-4.81C67.01-3.85 65.03-3.09 62.92-3.09C59.46-3.09 57.21-5.25 57.21-8.90C57.21-12.46 59.46-14.63 62.34-14.63C63.29-14.63 64.18-14.57 65.00-14.44L65.32-10.06L68.88-10.06L68.88-16.82C66.96-17.48 65.13-17.90 62.41-17.90C57.24-17.90 53.38-14.84 53.38-8.90ZM70.84-17.69L70.84-11.75L73.71-11.75L73.93-14.57L77.67-14.57L77.67-3.12L75.93-3.12L75.93 0L83.17 0L83.17-3.12L81.45-3.12L81.45-14.57L85.17-14.57L85.41-11.75L88.26-11.75L88.26-17.69ZM89.90-14.57L91.61-14.57L91.61-3.12L89.90-3.12L89.90 0L97.11 0L97.11-3.12L95.39-3.12L95.39-14.57L97.11-14.57L97.11-17.69L89.90-17.69ZM98.35-14.57L100.27-14.57L105.48 0L110.47 0L115.69-14.57L117.65-14.57L117.65-17.69L109.96-17.69L109.96-14.57L111.71-14.57L107.98-3.70L104.24-14.57L106.03-14.57L106.03-17.69L98.35-17.69ZM118.89 0L133.49 0L133.49-5.78L130.74-5.78L130.50-3.12L124.38-3.12L124.38-7.55L129.45-7.55L129.45-10.03L124.38-10.03L124.38-14.57L130.50-14.57L130.74-11.91L133.49-11.91L133.49-17.69L118.89-17.69L118.89-14.57L120.60-14.57L120.60-3.12L118.89-3.12ZM141.73-3.12L141.73 0L155.06 0L155.06-6.13L151.84-6.13L151.52-3.12L147.22-3.12L147.22-14.57L148.93-14.57L148.93-17.69L141.73-17.69L141.73-14.57L143.44-14.57L143.44-3.12ZM156.51-6.84C156.51-2.30 158.99 0.21 162.40 0.21C164.09 0.21 165.41-0.32 166.39-1.37L166.39 0L171.72 0L171.72-2.69L169.98-2.69L169.98-13.57L166.39-13.57L166.39-12.17C165.46-13.25 164.11-13.78 162.40-13.78C158.99-13.78 156.51-11.27 156.51-6.84ZM160.21-6.76C160.21-9.19 161.58-10.59 163.48-10.59C164.85-10.59 165.96-9.77 166.39-8.40L166.39-5.04C165.99-3.70 164.85-2.88 163.48-2.88C161.58-2.88 160.21-4.33 160.21-6.76ZM178.11 0L178.11-1.45C179.14-0.37 180.54 0.21 182.15 0.21C185.53 0.21 188.01-2.30 188.01-6.84C188.01-11.27 185.53-13.78 182.15-13.78C180.48-13.78 179.14-13.23 178.11-12.09L178.11-18.64L172.80-18.64L172.80-15.97L174.52-15.97L174.52-2.69L172.80-2.69L172.80 0ZM178.11-8.29C178.50-9.74 179.61-10.59 181.06-10.59C182.97-10.59 184.34-9.19 184.34-6.76C184.34-4.33 182.97-2.88 181.06-2.88C179.61-2.88 178.50-3.70 178.11-5.15ZM195.06-13.78C191.15-13.78 189.22-12.25 189.22-9.80C189.22-5.25 196.69-5.76 196.69-3.72C196.69-2.67 195.88-2.38 194.53-2.38C193.71-2.38 193.00-2.51 192.23-2.69L192.05-4.67L189.33-4.67L189.33-0.77C190.81-0.26 192.81 0.21 194.93 0.21C198.81 0.21 200.34-1.24 200.34-3.67C200.34-8.26 192.87-7.74 192.87-10.03C192.87-11.01 193.84-11.27 195.32-11.27C195.96-11.27 196.54-11.25 197.09-11.06L197.28-9.08L199.84-9.08L199.84-12.86C198.81-13.28 197.06-13.78 195.06-13.78Z"
            transform="translate(-0.8184613022022322, 18.63979610821858)"></path>
        </g>
        <!---->
        <!---->
        <!---->
        <!---->
        <!---->
        <!---->
        <g data-gra="path-name-1" fill="#fff" transform="translate(0,21.849998474121094)">
          <path d="" transform="translate(0, 0)"></path>
        </g>
      </g>
      <!---->
    </g>
  </g>
</svg>
